<svg width="134" height="15" viewBox="0 0 134 15" fill="none" xmlns="http://www.w3.org/2000/svg">
<path d="M2.61816 11H0.957031V3.60352H2.61816V11ZM0.854492 1.68262C0.854492 1.42741 0.934245 1.21549 1.09375 1.04688C1.25781 0.878255 1.49023 0.793945 1.79102 0.793945C2.0918 0.793945 2.32422 0.878255 2.48828 1.04688C2.65234 1.21549 2.73438 1.42741 2.73438 1.68262C2.73438 1.93327 2.65234 2.1429 2.48828 2.31152C2.32422 2.47559 2.0918 2.55762 1.79102 2.55762C1.49023 2.55762 1.25781 2.47559 1.09375 2.31152C0.934245 2.1429 0.854492 1.93327 0.854492 1.68262ZM6.25461 3.60352L6.30246 4.45801C6.84934 3.7972 7.56711 3.4668 8.45578 3.4668C9.99615 3.4668 10.78 4.34863 10.8073 6.1123V11H9.14621V6.20801C9.14621 5.73861 9.04367 5.39225 8.83859 5.16895C8.63807 4.94108 8.30767 4.82715 7.84738 4.82715C7.17746 4.82715 6.67844 5.13021 6.35031 5.73633V11H4.68918V3.60352H6.25461ZM13.3705 11V4.83398H12.2426V3.60352H13.3705V2.92676C13.3705 2.10645 13.5984 1.47298 14.0541 1.02637C14.5099 0.579753 15.1479 0.356445 15.9682 0.356445C16.2599 0.356445 16.5698 0.397461 16.8979 0.479492L16.8569 1.77832C16.6746 1.74186 16.4627 1.72363 16.2211 1.72363C15.4282 1.72363 15.0317 2.13151 15.0317 2.94727V3.60352H16.5356V4.83398H15.0317V11H13.3705ZM17.7179 7.2334C17.7179 6.50879 17.8615 5.8571 18.1486 5.27832C18.4357 4.69499 18.839 4.24837 19.3586 3.93848C19.8781 3.62402 20.4751 3.4668 21.1496 3.4668C22.1476 3.4668 22.9565 3.78809 23.5763 4.43066C24.2007 5.07324 24.5379 5.92546 24.588 6.9873L24.5949 7.37695C24.5949 8.10612 24.4536 8.75781 24.1711 9.33203C23.8931 9.90625 23.492 10.3506 22.9679 10.665C22.4484 10.9795 21.8468 11.1367 21.1632 11.1367C20.1196 11.1367 19.2834 10.7904 18.6545 10.0977C18.0301 9.40039 17.7179 8.47298 17.7179 7.31543V7.2334ZM19.3791 7.37695C19.3791 8.13802 19.5363 8.73503 19.8507 9.16797C20.1652 9.59635 20.6027 9.81055 21.1632 9.81055C21.7238 9.81055 22.159 9.5918 22.4689 9.1543C22.7834 8.7168 22.9406 8.0765 22.9406 7.2334C22.9406 6.486 22.7788 5.89355 22.4552 5.45605C22.1362 5.01855 21.701 4.7998 21.1496 4.7998C20.6073 4.7998 20.1766 5.01628 19.8576 5.44922C19.5386 5.8776 19.3791 6.52018 19.3791 7.37695ZM37.33 7.45898C37.2753 8.59831 36.995 9.49837 36.4891 10.1592C35.9833 10.8154 35.2974 11.1436 34.4315 11.1436C33.6067 11.1436 33.0552 10.7926 32.7772 10.0908C32.5448 10.4372 32.2736 10.6969 31.9638 10.8701C31.6584 11.0433 31.3371 11.1299 30.9999 11.1299C30.3345 11.1299 29.8287 10.8564 29.4823 10.3096C29.1405 9.7627 29.0106 9.03125 29.0927 8.11523C29.1656 7.3724 29.3456 6.70247 29.6327 6.10547C29.9244 5.50846 30.2912 5.04818 30.7333 4.72461C31.1799 4.39648 31.6539 4.23242 32.1552 4.23242C32.538 4.23242 32.8752 4.28027 33.1669 4.37598C33.4631 4.47168 33.8095 4.66992 34.2059 4.9707L33.8505 8.81934C33.7639 9.72168 34.0236 10.1729 34.6298 10.1729C35.0946 10.1729 35.4751 9.92448 35.7714 9.42773C36.0721 8.92643 36.2362 8.2793 36.2636 7.48633C36.341 5.80469 36.0152 4.51725 35.286 3.62402C34.5614 2.73079 33.4699 2.28418 32.0116 2.28418C31.1184 2.28418 30.3254 2.50749 29.6327 2.9541C28.9445 3.40072 28.3977 4.04785 27.9921 4.89551C27.5865 5.73861 27.3632 6.7002 27.3221 7.78027C27.2675 8.87858 27.3973 9.8265 27.7118 10.624C28.0308 11.417 28.5162 12.0208 29.1679 12.4355C29.8241 12.8503 30.6239 13.0576 31.5673 13.0576C31.9501 13.0576 32.3488 13.012 32.7636 12.9209C33.1828 12.8298 33.5383 12.7067 33.83 12.5518L34.0897 13.4883C33.8117 13.6706 33.4358 13.8164 32.9618 13.9258C32.4924 14.0397 32.0184 14.0967 31.5399 14.0967C30.3824 14.0967 29.3889 13.8506 28.5595 13.3584C27.73 12.8708 27.108 12.1621 26.6932 11.2324C26.2649 10.2708 26.0757 9.12012 26.1259 7.78027C26.1805 6.53158 26.4608 5.41048 26.9667 4.41699C27.4725 3.41895 28.163 2.64421 29.038 2.09277C29.9175 1.54134 30.9179 1.26562 32.0389 1.26562C33.1737 1.26562 34.149 1.51628 34.9647 2.01758C35.785 2.51432 36.398 3.2321 36.8036 4.1709C37.2092 5.10514 37.3846 6.20117 37.33 7.45898ZM30.4325 8.11523C30.3733 8.73503 30.4279 9.20671 30.5966 9.53027C30.7652 9.84928 31.0341 10.0088 31.4032 10.0088C31.6493 10.0088 31.8817 9.90169 32.1005 9.6875C32.3192 9.46875 32.497 9.17025 32.6337 8.79199L32.9413 5.42188C32.7134 5.33529 32.4924 5.29199 32.2782 5.29199C31.7723 5.29199 31.3599 5.53125 31.0409 6.00977C30.7219 6.48372 30.5191 7.18555 30.4325 8.11523ZM38.7721 7.24707C38.7721 6.10775 39.0364 5.19401 39.565 4.50586C40.0937 3.81315 40.8023 3.4668 41.691 3.4668C42.4749 3.4668 43.1083 3.74023 43.5914 4.28711V0.5H45.2525V11H43.7486L43.6666 10.2344C43.1699 10.8359 42.5068 11.1367 41.6773 11.1367C40.8115 11.1367 40.1096 10.7881 39.5719 10.0908C39.0387 9.39355 38.7721 8.44564 38.7721 7.24707ZM40.4332 7.39062C40.4332 8.14258 40.5768 8.73047 40.8639 9.1543C41.1555 9.57357 41.568 9.7832 42.1012 9.7832C42.7802 9.7832 43.277 9.48014 43.5914 8.87402V5.71582C43.2861 5.12337 42.7939 4.82715 42.1148 4.82715C41.5771 4.82715 41.1624 5.04134 40.8707 5.46973C40.579 5.89355 40.4332 6.53385 40.4332 7.39062ZM50.5228 11.1367C49.47 11.1367 48.6155 10.8063 47.9593 10.1455C47.3076 9.48014 46.9818 8.59603 46.9818 7.49316V7.28809C46.9818 6.5498 47.123 5.89128 47.4056 5.3125C47.6927 4.72917 48.0937 4.27572 48.6087 3.95215C49.1237 3.62858 49.6979 3.4668 50.3314 3.4668C51.3385 3.4668 52.1155 3.78809 52.6624 4.43066C53.2139 5.07324 53.4896 5.98242 53.4896 7.1582V7.82812H48.6566C48.7067 8.4388 48.9095 8.92188 49.265 9.27734C49.625 9.63281 50.0762 9.81055 50.6185 9.81055C51.3795 9.81055 51.9993 9.50293 52.4779 8.8877L53.3734 9.74219C53.0771 10.1842 52.6807 10.5283 52.1839 10.7744C51.6917 11.016 51.138 11.1367 50.5228 11.1367ZM50.3245 4.7998C49.8688 4.7998 49.4997 4.95931 49.2171 5.27832C48.9391 5.59733 48.7614 6.04167 48.6839 6.61133H51.8489V6.48828C51.8125 5.93229 51.6644 5.51302 51.4046 5.23047C51.1448 4.94336 50.7848 4.7998 50.3245 4.7998ZM57.5772 8.89453L59.1426 3.60352H60.8584L58.295 11H56.8526L54.2686 3.60352H55.9912L57.5772 8.89453ZM66.3269 8.99023C66.3269 8.69401 66.2039 8.46842 65.9578 8.31348C65.7162 8.15853 65.3129 8.02181 64.7478 7.90332C64.1827 7.78483 63.711 7.63444 63.3328 7.45215C62.5033 7.05111 62.0886 6.47005 62.0886 5.70898C62.0886 5.07096 62.3575 4.53776 62.8953 4.10938C63.433 3.68099 64.1166 3.4668 64.9461 3.4668C65.8302 3.4668 66.5434 3.68555 67.0857 4.12305C67.6326 4.56055 67.906 5.12793 67.906 5.8252H66.2449C66.2449 5.50618 66.1264 5.24186 65.8894 5.03223C65.6524 4.81803 65.338 4.71094 64.9461 4.71094C64.5815 4.71094 64.283 4.79525 64.0505 4.96387C63.8227 5.13249 63.7088 5.35807 63.7088 5.64062C63.7088 5.89583 63.8158 6.09408 64.03 6.23535C64.2442 6.37663 64.6772 6.52018 65.3289 6.66602C65.9806 6.80729 66.491 6.97819 66.8601 7.17871C67.2338 7.37467 67.5095 7.61165 67.6873 7.88965C67.8696 8.16764 67.9607 8.50488 67.9607 8.90137C67.9607 9.56673 67.685 10.1068 67.1336 10.5215C66.5821 10.9316 65.8598 11.1367 64.9666 11.1367C64.3604 11.1367 63.8204 11.0273 63.3464 10.8086C62.8725 10.5898 62.5033 10.2891 62.239 9.90625C61.9747 9.52344 61.8425 9.111 61.8425 8.66895H63.4558C63.4786 9.06087 63.6267 9.36393 63.9002 9.57812C64.1736 9.78776 64.5359 9.89258 64.9871 9.89258C65.4246 9.89258 65.7573 9.81055 65.9851 9.64648C66.213 9.47786 66.3269 9.25911 66.3269 8.99023ZM71.7749 1.80566V3.60352H73.0805V4.83398H71.7749V8.96289C71.7749 9.24544 71.8296 9.45052 71.9389 9.57812C72.0529 9.70117 72.2534 9.7627 72.5405 9.7627C72.7319 9.7627 72.9256 9.73991 73.1216 9.69434V10.9795C72.7433 11.0843 72.3787 11.1367 72.0278 11.1367C70.7518 11.1367 70.1137 10.4326 70.1137 9.02441V4.83398H68.8969V3.60352H70.1137V1.80566H71.7749ZM79.1164 10.2754C78.6288 10.8496 77.9361 11.1367 77.0383 11.1367C76.2362 11.1367 75.6278 10.902 75.2131 10.4326C74.8029 9.96322 74.5979 9.28418 74.5979 8.39551V3.60352H76.259V8.375C76.259 9.3138 76.6486 9.7832 77.4279 9.7832C78.2346 9.7832 78.7792 9.49382 79.0617 8.91504V3.60352H80.7229V11H79.1574L79.1164 10.2754ZM82.3837 7.24707C82.3837 6.10775 82.648 5.19401 83.1767 4.50586C83.7053 3.81315 84.414 3.4668 85.3027 3.4668C86.0865 3.4668 86.72 3.74023 87.203 4.28711V0.5H88.8642V11H87.3603L87.2782 10.2344C86.7815 10.8359 86.1184 11.1367 85.289 11.1367C84.4231 11.1367 83.7213 10.7881 83.1835 10.0908C82.6503 9.39355 82.3837 8.44564 82.3837 7.24707ZM84.0448 7.39062C84.0448 8.14258 84.1884 8.73047 84.4755 9.1543C84.7672 9.57357 85.1796 9.7832 85.7128 9.7832C86.3919 9.7832 86.8886 9.48014 87.203 8.87402V5.71582C86.8977 5.12337 86.4055 4.82715 85.7265 4.82715C85.1887 4.82715 84.774 5.04134 84.4823 5.46973C84.1907 5.89355 84.0448 6.53385 84.0448 7.39062ZM92.6442 11H90.983V3.60352H92.6442V11ZM90.8805 1.68262C90.8805 1.42741 90.9603 1.21549 91.1198 1.04688C91.2838 0.878255 91.5163 0.793945 91.817 0.793945C92.1178 0.793945 92.3502 0.878255 92.5143 1.04688C92.6784 1.21549 92.7604 1.42741 92.7604 1.68262C92.7604 1.93327 92.6784 2.1429 92.5143 2.31152C92.3502 2.47559 92.1178 2.55762 91.817 2.55762C91.5163 2.55762 91.2838 2.47559 91.1198 2.31152C90.9603 2.1429 90.8805 1.93327 90.8805 1.68262ZM94.4281 7.2334C94.4281 6.50879 94.5716 5.8571 94.8587 5.27832C95.1459 4.69499 95.5492 4.24837 96.0687 3.93848C96.5882 3.62402 97.1852 3.4668 97.8597 3.4668C98.8578 3.4668 99.6667 3.78809 100.286 4.43066C100.911 5.07324 101.248 5.92546 101.298 6.9873L101.305 7.37695C101.305 8.10612 101.164 8.75781 100.881 9.33203C100.603 9.90625 100.202 10.3506 99.6781 10.665C99.1586 10.9795 98.557 11.1367 97.8734 11.1367C96.8298 11.1367 95.9935 10.7904 95.3646 10.0977C94.7403 9.40039 94.4281 8.47298 94.4281 7.31543V7.2334ZM96.0892 7.37695C96.0892 8.13802 96.2464 8.73503 96.5609 9.16797C96.8754 9.59635 97.3129 9.81055 97.8734 9.81055C98.4339 9.81055 98.8692 9.5918 99.1791 9.1543C99.4935 8.7168 99.6507 8.0765 99.6507 7.2334C99.6507 6.486 99.489 5.89355 99.1654 5.45605C98.8464 5.01855 98.4112 4.7998 97.8597 4.7998C97.3174 4.7998 96.8867 5.01628 96.5677 5.44922C96.2487 5.8776 96.0892 6.52018 96.0892 7.37695ZM104.025 9.25C104.335 9.25 104.575 9.33887 104.743 9.5166C104.912 9.68978 104.996 9.90853 104.996 10.1729C104.996 10.4326 104.912 10.6491 104.743 10.8223C104.575 10.9909 104.335 11.0752 104.025 11.0752C103.729 11.0752 103.495 10.9909 103.321 10.8223C103.148 10.6536 103.062 10.4372 103.062 10.1729C103.062 9.90853 103.146 9.68978 103.315 9.5166C103.483 9.33887 103.72 9.25 104.025 9.25ZM110.219 9.81055C110.633 9.81055 110.977 9.68978 111.251 9.44824C111.524 9.20671 111.67 8.9082 111.688 8.55273H113.254C113.235 9.01302 113.092 9.44368 112.823 9.84473C112.554 10.2412 112.19 10.5557 111.729 10.7881C111.269 11.0205 110.772 11.1367 110.239 11.1367C109.205 11.1367 108.384 10.8018 107.778 10.1318C107.172 9.46191 106.869 8.53678 106.869 7.35645V7.18555C106.869 6.0599 107.17 5.15983 107.771 4.48535C108.373 3.80632 109.193 3.4668 110.232 3.4668C111.112 3.4668 111.827 3.72428 112.379 4.23926C112.935 4.74967 113.226 5.42188 113.254 6.25586H111.688C111.67 5.83203 111.524 5.4834 111.251 5.20996C110.982 4.93652 110.638 4.7998 110.219 4.7998C109.681 4.7998 109.266 4.99577 108.974 5.3877C108.683 5.77507 108.535 6.36523 108.53 7.1582V7.4248C108.53 8.22689 108.674 8.82617 108.961 9.22266C109.252 9.61458 109.672 9.81055 110.219 9.81055ZM114.477 7.2334C114.477 6.50879 114.621 5.8571 114.908 5.27832C115.195 4.69499 115.598 4.24837 116.118 3.93848C116.637 3.62402 117.234 3.4668 117.909 3.4668C118.907 3.4668 119.716 3.78809 120.335 4.43066C120.96 5.07324 121.297 5.92546 121.347 6.9873L121.354 7.37695C121.354 8.10612 121.213 8.75781 120.93 9.33203C120.652 9.90625 120.251 10.3506 119.727 10.665C119.208 10.9795 118.606 11.1367 117.922 11.1367C116.879 11.1367 116.043 10.7904 115.414 10.0977C114.789 9.40039 114.477 8.47298 114.477 7.31543V7.2334ZM116.138 7.37695C116.138 8.13802 116.295 8.73503 116.61 9.16797C116.924 9.59635 117.362 9.81055 117.922 9.81055C118.483 9.81055 118.918 9.5918 119.228 9.1543C119.543 8.7168 119.7 8.0765 119.7 7.2334C119.7 6.486 119.538 5.89355 119.214 5.45605C118.895 5.01855 118.46 4.7998 117.909 4.7998C117.366 4.7998 116.936 5.01628 116.617 5.44922C116.298 5.8776 116.138 6.52018 116.138 7.37695ZM124.601 3.60352L124.649 4.37598C125.168 3.76986 125.879 3.4668 126.781 3.4668C127.77 3.4668 128.447 3.84505 128.812 4.60156C129.35 3.84505 130.106 3.4668 131.081 3.4668C131.897 3.4668 132.503 3.69238 132.9 4.14355C133.301 4.59473 133.506 5.26009 133.515 6.13965V11H131.854V6.1875C131.854 5.7181 131.751 5.37402 131.546 5.15527C131.341 4.93652 131.002 4.82715 130.528 4.82715C130.149 4.82715 129.839 4.92969 129.598 5.13477C129.361 5.33529 129.195 5.59961 129.099 5.92773L129.106 11H127.445V6.13281C127.422 5.26237 126.977 4.82715 126.112 4.82715C125.446 4.82715 124.975 5.09831 124.697 5.64062V11H123.035V3.60352H124.601Z" fill="#757575"/>
</svg>
